<svg width="28" height="29" viewBox="0 0 28 29" fill="none" xmlns="http://www.w3.org/2000/svg">
<mask id="mask0_25_13" style="mask-type:alpha" maskUnits="userSpaceOnUse" x="0" y="0" width="28" height="29">
<rect y="0.5" width="28" height="28" fill="#D9D9D9"/>
</mask>
<g mask="url(#mask0_25_13)">
<path d="M23.275 25C20.8444 25 18.4431 24.4701 16.0708 23.4104C13.6986 22.3507 11.5403 20.8486 9.59583 18.9042C7.65139 16.9597 6.14931 14.8014 5.08958 12.4292C4.02986 10.0569 3.5 7.65556 3.5 5.225C3.5 4.875 3.61667 4.58333 3.85 4.35C4.08333 4.11667 4.375 4 4.725 4H9.45C9.72222 4 9.96528 4.09236 10.1792 4.27708C10.3931 4.46181 10.5194 4.68056 10.5583 4.93333L11.3167 9.01667C11.3556 9.32778 11.3458 9.59028 11.2875 9.80417C11.2292 10.0181 11.1222 10.2028 10.9667 10.3583L8.1375 13.2167C8.52639 13.9361 8.98819 14.6312 9.52292 15.3021C10.0576 15.9729 10.6458 16.6194 11.2875 17.2417C11.8903 17.8444 12.5222 18.4035 13.1833 18.9187C13.8444 19.434 14.5444 19.9056 15.2833 20.3333L18.025 17.5917C18.2 17.4167 18.4285 17.2854 18.7104 17.1979C18.9924 17.1104 19.2694 17.0861 19.5417 17.125L23.5667 17.9417C23.8389 18.0194 24.0625 18.1604 24.2375 18.3646C24.4125 18.5687 24.5 18.7972 24.5 19.05V23.775C24.5 24.125 24.3833 24.4167 24.15 24.65C23.9167 24.8833 23.625 25 23.275 25Z" fill="#001F35"/>
</g>
</svg>
