<svg width="28" height="29" viewBox="0 0 28 29" fill="none" xmlns="http://www.w3.org/2000/svg">
<mask id="mask0_25_18" style="mask-type:alpha" maskUnits="userSpaceOnUse" x="0" y="0" width="28" height="29">
<rect y="0.5" width="28" height="28" fill="#D9D9D9"/>
</mask>
<g mask="url(#mask0_25_18)">
<path d="M4.66683 23.8334C4.02516 23.8334 3.47586 23.6049 3.01891 23.148C2.56197 22.6911 2.3335 22.1417 2.3335 21.5001V7.50008C2.3335 6.85841 2.56197 6.30911 3.01891 5.85216C3.47586 5.39522 4.02516 5.16675 4.66683 5.16675H23.3335C23.9752 5.16675 24.5245 5.39522 24.9814 5.85216C25.4384 6.30911 25.6668 6.85841 25.6668 7.50008V21.5001C25.6668 22.1417 25.4384 22.6911 24.9814 23.148C24.5245 23.6049 23.9752 23.8334 23.3335 23.8334H4.66683ZM14.0002 15.6667L23.3335 9.83341V7.50008L14.0002 13.3334L4.66683 7.50008V9.83341L14.0002 15.6667Z" fill="#001F35"/>
</g>
</svg>
