<svg width="28" height="29" viewBox="0 0 28 29" fill="none" xmlns="http://www.w3.org/2000/svg">
<mask id="mask0_25_8" style="mask-type:alpha" maskUnits="userSpaceOnUse" x="0" y="0" width="28" height="29">
<rect y="0.5" width="28" height="28" fill="#D9D9D9"/>
</mask>
<g mask="url(#mask0_25_8)">
<path d="M13.9998 14.5001C12.7165 14.5001 11.6179 14.0431 10.704 13.1292C9.79011 12.2154 9.33317 11.1167 9.33317 9.83341C9.33317 8.55008 9.79011 7.45147 10.704 6.53758C11.6179 5.62369 12.7165 5.16675 13.9998 5.16675C15.2832 5.16675 16.3818 5.62369 17.2957 6.53758C18.2096 7.45147 18.6665 8.55008 18.6665 9.83341C18.6665 11.1167 18.2096 12.2154 17.2957 13.1292C16.3818 14.0431 15.2832 14.5001 13.9998 14.5001ZM4.6665 23.8334V20.5667C4.6665 19.9056 4.83664 19.298 5.17692 18.7438C5.5172 18.1897 5.96928 17.7667 6.53317 17.4751C7.73873 16.8723 8.96373 16.4202 10.2082 16.1188C11.4526 15.8174 12.7165 15.6667 13.9998 15.6667C15.2832 15.6667 16.5471 15.8174 17.7915 16.1188C19.0359 16.4202 20.2609 16.8723 21.4665 17.4751C22.0304 17.7667 22.4825 18.1897 22.8228 18.7438C23.163 19.298 23.3332 19.9056 23.3332 20.5667V23.8334H4.6665Z" fill="#001F35"/>
</g>
</svg>
